<?xml version="1.0" standalone="no"?>
<!DOCTYPE svg PUBLIC "-//W3C//DTD SVG 20010904//EN"
 "http://www.w3.org/TR/2001/REC-SVG-20010904/DTD/svg10.dtd">
<svg version="1.0" xmlns="http://www.w3.org/2000/svg"
 width="3300.000000pt" height="1000.000000pt" viewBox="0 0 3300.000000 1000.000000"
 preserveAspectRatio="xMidYMid meet">

<g transform="translate(0.000000,1000.000000) scale(0.100000,-0.100000)"
fill="#000000" stroke="none">
<path d="M5430 9453 l0 -379 136 -12 c762 -69 1516 -378 2144 -878 173 -138
486 -451 624 -624 486 -610 776 -1303 873 -2090 25 -205 25 -715 0 -920 -118
-955 -522 -1781 -1194 -2441 -158 -156 -246 -233 -390 -342 -578 -437 -1218
-699 -1953 -799 -144 -20 -208 -23 -510 -23 -380 0 -516 13 -822 75 -1452 297
-2641 1383 -3073 2805 -72 238 -120 470 -150 730 -8 71 -15 151 -15 177 l0 48
-381 0 -381 0 7 -87 c57 -759 259 -1431 623 -2073 360 -636 899 -1215 1517
-1627 600 -400 1295 -665 1995 -762 254 -35 408 -45 685 -45 558 1 1048 82
1566 260 914 314 1722 906 2305 1689 537 722 854 1567 934 2490 15 169 15 604
0 770 -90 1030 -463 1936 -1121 2725 -131 159 -418 446 -574 576 -491 408
-1002 696 -1580 889 -384 129 -746 202 -1192 240 l-73 6 0 -378z"/>
<path d="M12072 8699 c-238 -23 -460 -126 -613 -286 -108 -113 -174 -221 -223
-368 -57 -169 -57 -180 -54 -1072 l3 -818 27 -97 c110 -400 392 -658 793 -723
183 -30 413 -14 578 40 381 124 629 461 654 885 5 88 3 107 -10 118 -10 9 -59
13 -154 15 l-138 2 -7 -97 c-9 -128 -31 -215 -79 -314 -101 -208 -306 -342
-554 -363 -251 -21 -451 43 -601 193 -81 82 -137 175 -174 291 l-25 80 -3 795
c-2 699 -1 805 13 875 52 256 214 443 452 521 83 27 98 29 253 29 155 0 170
-2 253 -29 148 -48 260 -133 346 -262 73 -109 121 -272 121 -415 0 -36 5 -61
14 -68 20 -17 243 -4 275 16 23 15 24 17 18 122 -15 255 -118 494 -284 658
-160 157 -369 249 -622 273 -117 11 -138 11 -259 -1z"/>
<path d="M14740 8703 c-489 -39 -845 -370 -925 -863 -22 -138 -22 -1509 0
-1647 58 -357 252 -629 548 -768 258 -122 604 -135 879 -35 345 126 573 420
633 815 22 145 22 1474 0 1615 -49 320 -191 557 -429 715 -144 94 -292 145
-485 164 -101 11 -129 11 -221 4z m285 -308 c254 -54 448 -248 527 -530 23
-80 23 -80 23 -855 0 -772 0 -775 -22 -855 -76 -270 -252 -453 -503 -521 -91
-25 -319 -25 -410 -1 -251 68 -432 255 -504 522 -21 79 -21 94 -21 855 0 771
0 775 22 859 72 267 254 456 503 520 94 25 283 27 385 6z"/>
<path d="M28832 8699 c-238 -23 -460 -126 -613 -286 -108 -113 -174 -221 -223
-368 -57 -169 -57 -180 -54 -1072 l3 -818 27 -97 c110 -400 392 -658 793 -723
183 -30 413 -14 578 40 381 124 629 461 654 885 5 88 3 107 -10 118 -10 9 -59
13 -154 15 l-138 2 -7 -97 c-9 -128 -31 -215 -79 -314 -101 -208 -306 -342
-554 -363 -251 -21 -451 43 -601 193 -81 82 -137 175 -174 291 l-25 80 -3 795
c-2 699 -1 805 13 875 52 256 214 443 452 521 83 27 98 29 253 29 155 0 170
-2 253 -29 148 -48 260 -133 346 -262 73 -109 121 -272 121 -415 0 -36 5 -61
14 -68 20 -17 243 -4 275 16 23 15 24 17 18 122 -15 255 -118 494 -284 658
-160 157 -369 249 -622 273 -117 11 -138 11 -259 -1z"/>
<path d="M16596 8654 c-14 -14 -16 -176 -16 -1635 0 -1098 3 -1627 10 -1640
10 -17 22 -19 143 -19 73 0 138 4 144 8 10 6 13 289 15 1337 2 875 6 1329 13
1331 6 2 168 -256 360 -573 193 -317 361 -589 373 -605 23 -26 28 -28 104 -28
70 0 82 3 99 23 11 12 179 285 373 607 195 321 359 586 365 588 8 3 11 -371
11 -1330 0 -1024 3 -1337 12 -1346 8 -8 54 -12 143 -12 89 0 135 4 143 12 17
17 17 3269 0 3286 -14 14 -265 17 -286 3 -8 -4 -200 -314 -427 -687 -227 -374
-419 -680 -427 -682 -8 -1 -176 264 -427 674 -227 371 -420 682 -428 690 -22
21 -275 20 -297 -2z"/>
<path d="M19696 8654 c-14 -14 -16 -176 -16 -1635 0 -1098 3 -1627 10 -1640
10 -17 22 -19 143 -19 73 0 138 4 144 8 10 6 13 289 15 1337 2 875 6 1329 13
1331 6 2 168 -256 360 -573 193 -317 361 -589 373 -605 23 -26 28 -28 104 -28
70 0 82 3 99 23 11 12 179 285 373 607 195 321 359 586 365 588 8 3 11 -371
11 -1330 0 -1024 3 -1337 12 -1346 17 -17 269 -17 286 0 17 17 17 3269 0 3286
-14 14 -265 17 -286 3 -8 -4 -200 -314 -427 -687 -227 -374 -419 -680 -427
-682 -8 -1 -176 264 -427 674 -227 371 -420 682 -428 690 -22 21 -275 20 -297
-2z"/>
<path d="M22786 8654 c-14 -14 -16 -176 -16 -1635 0 -1098 3 -1627 10 -1640
10 -19 32 -19 984 -19 819 0 975 2 985 14 8 9 11 56 9 142 l-3 129 -829 3
c-649 2 -832 5 -838 15 -9 14 -11 1177 -2 1201 6 14 67 16 588 16 439 0 585 3
594 12 17 17 17 249 0 266 -9 9 -155 12 -594 12 -521 0 -582 2 -588 16 -3 9
-6 276 -6 594 0 472 2 580 13 589 10 8 249 12 838 13 l824 3 3 129 c2 86 -1
133 -9 142 -10 12 -165 14 -980 14 -866 0 -969 -2 -983 -16z"/>
<path d="M25406 8655 c-15 -15 -16 -155 -16 -1636 0 -1098 3 -1627 10 -1640
10 -17 22 -19 143 -19 73 0 138 4 144 8 10 6 13 172 15 753 l3 744 390 0 390
0 321 -730 c177 -401 329 -740 338 -753 17 -22 22 -22 159 -20 l142 3 3 25 c1
16 -121 296 -328 754 -182 401 -329 734 -327 739 1 5 40 22 85 38 199 67 347
199 442 393 53 106 78 196 92 334 21 198 -12 402 -92 568 -103 213 -283 362
-515 426 -78 22 -96 22 -731 26 -591 3 -653 2 -668 -13z m1298 -298 c92 -27
155 -65 232 -142 117 -116 174 -267 174 -462 -1 -308 -174 -542 -442 -597
-115 -24 -953 -24 -962 0 -3 9 -6 282 -6 608 0 460 3 595 13 605 9 10 111 11
472 8 398 -3 468 -6 519 -20z"/>
<path d="M30676 8654 c-14 -14 -16 -176 -16 -1635 0 -1098 3 -1627 10 -1640
10 -19 32 -19 984 -19 819 0 975 2 985 14 8 9 11 56 9 142 l-3 129 -829 3
c-649 2 -832 5 -838 15 -9 14 -11 1177 -2 1201 6 14 67 16 588 16 439 0 585 3
594 12 17 17 17 249 0 266 -9 9 -155 12 -594 12 -521 0 -582 2 -588 16 -3 9
-6 276 -6 594 0 472 2 580 13 589 10 8 249 12 838 13 l824 3 3 129 c2 86 -1
133 -9 142 -10 12 -165 14 -980 14 -866 0 -969 -2 -983 -16z"/>
<path d="M5430 8195 l0 -375 23 -4 c12 -3 60 -10 107 -16 644 -84 1291 -438
1728 -945 376 -436 599 -944 673 -1530 7 -55 13 -197 13 -315 0 -228 -10 -335
-50 -543 -212 -1095 -1065 -1967 -2164 -2211 -220 -48 -336 -60 -600 -60 -264
0 -380 12 -600 60 -918 204 -1665 838 -2015 1709 -68 169 -113 316 -145 478
l-12 58 -56 -5 c-31 -3 -201 -13 -377 -22 -176 -10 -321 -18 -323 -19 -5 -4
41 -227 73 -350 343 -1312 1412 -2328 2733 -2594 241 -49 377 -63 657 -68 439
-8 789 43 1184 173 1241 410 2163 1470 2395 2754 43 238 51 340 51 640 0 300
-8 402 -51 640 -249 1376 -1287 2486 -2644 2825 -192 48 -474 95 -571 95 l-29
0 0 -375z"/>
<path d="M5430 6932 l0 -380 73 -17 c182 -41 377 -127 542 -238 127 -86 323
-285 408 -412 117 -177 191 -353 239 -567 20 -89 23 -130 23 -306 l0 -203 85
-25 c47 -14 96 -29 110 -34 14 -5 104 -32 200 -60 96 -28 193 -57 215 -65 22
-8 56 -18 77 -23 l36 -10 11 62 c24 140 33 352 22 504 -25 329 -93 585 -230
867 -145 296 -347 555 -601 767 -320 267 -747 456 -1162 514 l-48 6 0 -380z"/>
<path d="M12070 4700 c-497 -50 -838 -332 -963 -799 l-31 -116 -4 -720 c-2
-607 -1 -735 12 -816 67 -421 319 -730 702 -860 280 -95 647 -86 912 22 235
96 413 258 525 477 73 141 104 259 122 467 6 60 4 74 -12 93 -17 21 -29 22
-295 34 -216 9 -279 9 -291 0 -9 -8 -17 -42 -21 -93 -13 -149 -55 -248 -145
-342 -87 -91 -163 -129 -298 -148 -219 -30 -433 71 -527 250 -67 129 -66 112
-66 861 0 560 3 686 15 738 43 182 170 315 349 367 67 20 217 23 290 6 134
-31 269 -140 327 -265 31 -66 58 -187 59 -262 0 -24 6 -47 14 -54 12 -9 71 -8
268 4 303 20 315 21 328 47 16 29 -5 236 -35 348 -107 398 -419 674 -843 745
-115 20 -286 26 -392 16z"/>
<path d="M14127 4652 c-16 -17 -17 -145 -17 -1639 0 -1557 1 -1621 18 -1636
17 -16 104 -17 1050 -17 924 0 1032 2 1046 16 14 13 16 52 16 273 0 204 -3
261 -13 270 -10 8 -227 12 -753 13 l-739 3 -3 399 c-2 313 1 401 10 408 7 4
230 8 495 8 l483 0 15 24 c14 21 16 60 13 271 -3 231 -4 248 -22 261 -17 12
-102 14 -508 14 l-488 0 2 388 3 387 739 3 c526 1 743 5 753 13 10 9 13 65 13
269 0 236 -1 258 -18 273 -17 16 -104 17 -1049 17 -985 0 -1031 -1 -1046 -18z"/>
<path d="M16997 4652 c-16 -17 -17 -145 -17 -1639 0 -1557 1 -1621 18 -1636
16 -15 52 -17 295 -17 266 0 276 1 290 20 12 18 14 167 9 1037 -4 852 -3 1015
9 1011 7 -2 269 -459 581 -1014 312 -555 576 -1019 587 -1031 19 -23 22 -23
290 -23 232 0 272 2 285 16 14 14 16 176 16 1639 0 1463 -2 1625 -16 1639 -13
14 -53 16 -285 16 -167 0 -278 -4 -290 -10 -19 -10 -19 -32 -19 -1030 0 -810
-3 -1020 -12 -1020 -7 0 -271 459 -587 1020 -315 562 -582 1025 -592 1030 -10
6 -130 10 -282 10 -243 0 -265 -1 -280 -18z"/>
<path d="M20080 4650 c-20 -20 -21 -30 -18 -276 3 -240 4 -257 22 -270 16 -11
90 -14 418 -14 l398 0 0 -1343 c0 -1199 2 -1345 16 -1365 15 -22 17 -22 293
-22 256 0 279 1 294 18 16 17 17 129 19 1363 l3 1344 411 5 c328 4 414 8 427
19 15 12 17 44 17 271 0 236 -1 258 -18 273 -17 16 -111 17 -1140 17 -1117 0
-1122 0 -1142 -20z"/>
<path d="M23107 4652 c-16 -17 -17 -127 -17 -1639 0 -1557 1 -1621 18 -1636
16 -15 52 -17 295 -17 274 0 276 0 291 22 14 20 16 102 16 685 l0 663 219 0
c163 0 221 -3 229 -12 5 -7 134 -310 287 -673 152 -363 283 -666 292 -673 13
-9 90 -12 304 -12 158 0 294 3 303 6 9 3 16 16 16 27 0 12 -135 324 -300 693
-165 369 -300 678 -300 687 0 9 40 35 103 65 249 123 402 334 458 632 18 96
15 348 -5 445 -43 201 -117 351 -234 476 -118 126 -251 203 -434 251 -81 21
-100 22 -803 25 -696 4 -722 3 -738 -15z m1283 -562 c157 -30 275 -140 316
-295 19 -68 17 -200 -2 -266 -42 -143 -160 -250 -309 -279 -39 -7 -167 -10
-370 -8 l-310 3 -3 415 c-1 228 0 421 3 427 6 16 594 18 675 3z"/>
<path d="M26987 4657 c-12 -8 -169 -523 -497 -1627 -264 -888 -480 -1622 -480
-1630 0 -38 16 -40 325 -40 275 0 303 2 317 18 9 9 44 118 77 242 34 124 66
235 71 248 l10 22 549 0 c427 0 551 -3 558 -12 5 -7 38 -112 72 -233 74 -264
78 -274 105 -280 11 -3 153 -4 315 -3 258 3 295 5 304 19 13 22 -945 3257
-970 3277 -24 18 -732 18 -756 -1z m383 -812 c0 -2 90 -324 200 -715 110 -391
198 -715 195 -720 -4 -6 -161 -10 -401 -10 -353 0 -395 2 -401 16 -5 13 368
1398 384 1427 5 8 23 10 23 2z"/>
<path d="M29427 4652 c-16 -17 -17 -145 -17 -1639 0 -1557 1 -1621 18 -1636
17 -16 104 -17 1050 -17 l1031 0 15 22 c13 19 16 62 16 269 0 225 -2 247 -18
262 -17 15 -87 17 -753 19 l-734 3 -5 1353 c-5 1325 -5 1354 -24 1368 -16 11
-73 14 -291 14 -251 0 -273 -1 -288 -18z"/>
</g>
</svg>
