<svg id="svg" version="1.1" xmlns="http://www.w3.org/2000/svg" xmlns:xlink="http://www.w3.org/1999/xlink" width="400" height="400" viewBox="0, 0, 400,400"><g id="svgg"><path id="path0" d="M210.400 21.971 L 210.400 37.142 212.700 37.398 C 251.107 41.662,280.158 54.018,306.800 77.423 C 318.817 87.980,332.717 104.538,339.016 115.800 C 339.262 116.240,340.391 118.239,341.525 120.242 C 352.051 138.844,358.436 158.842,361.370 182.400 C 366.342 222.315,352.882 268.571,326.920 300.790 C 314.945 315.651,295.961 332.195,282.200 339.762 C 281.540 340.125,280.370 340.803,279.600 341.268 C 278.105 342.172,265.706 348.400,265.403 348.400 C 265.303 348.400,264.272 348.841,263.111 349.381 C 227.846 365.767,174.547 366.293,139.000 350.606 C 138.340 350.315,136.630 349.590,135.200 348.995 C 131.378 347.406,120.714 341.957,116.800 339.593 C 112.981 337.287,107.319 333.650,106.403 332.917 C 106.071 332.651,103.984 331.081,101.765 329.428 C 90.863 321.308,78.933 309.477,70.675 298.600 C 69.339 296.840,68.136 295.310,68.002 295.200 C 67.868 295.090,67.345 294.320,66.840 293.489 C 66.335 292.659,65.711 291.759,65.453 291.489 C 64.131 290.108,57.126 278.231,54.076 272.200 C 44.869 253.996,39.564 234.697,37.389 211.500 L 37.136 208.800 21.907 208.800 L 6.677 208.800 6.931 213.528 C 8.271 238.449,16.541 267.286,28.977 290.400 C 32.690 297.302,39.254 308.096,40.409 309.200 C 40.524 309.310,40.959 309.940,41.375 310.600 C 52.842 328.798,85.424 358.735,102.600 366.857 C 103.040 367.065,104.300 367.765,105.400 368.413 C 109.033 370.554,118.120 375.022,123.200 377.166 C 125.950 378.327,128.746 379.519,129.414 379.816 C 138.860 384.017,160.685 389.527,175.200 391.375 C 186.137 392.767,209.383 393.254,216.400 392.238 C 217.170 392.126,219.690 391.837,222.000 391.596 C 246.304 389.053,272.132 380.641,294.800 367.884 C 328.381 348.985,356.556 319.041,373.163 284.600 C 376.033 278.648,377.600 275.244,377.600 274.963 C 377.600 274.845,378.037 273.792,378.572 272.624 C 385.305 257.904,390.904 233.513,392.442 212.200 C 392.862 206.380,392.729 186.722,392.251 184.000 C 392.154 183.450,391.961 181.560,391.822 179.800 C 390.728 165.942,386.258 146.788,380.726 132.248 C 379.628 129.361,378.477 126.327,378.169 125.505 C 362.633 84.114,322.139 42.247,279.600 23.597 C 277.510 22.681,275.260 21.691,274.600 21.398 C 260.893 15.312,240.498 9.842,224.000 7.829 C 219.119 7.233,214.391 6.813,212.500 6.807 L 210.400 6.800 210.400 21.971 M210.400 72.200 C 210.400 83.314,210.525 87.600,210.849 87.600 C 225.806 87.600,252.256 98.239,268.400 110.750 C 325.271 154.819,326.555 241.590,271.000 286.405 C 269.240 287.825,267.620 289.135,267.400 289.315 C 244.968 307.730,209.078 316.018,177.861 309.993 C 162.052 306.943,142.678 298.245,131.800 289.315 C 131.580 289.135,129.960 287.827,128.200 286.409 C 109.801 271.590,95.488 248.602,90.212 225.400 C 89.612 222.760,89.071 220.419,89.011 220.198 C 88.903 219.808,58.620 221.208,58.278 221.619 C 57.819 222.172,61.270 237.220,63.182 243.000 C 65.742 250.740,66.642 253.056,69.447 259.129 C 70.191 260.740,70.800 262.158,70.800 262.280 C 70.800 263.124,81.044 280.514,81.945 281.200 C 82.089 281.310,82.701 282.161,83.304 283.092 C 94.136 299.804,116.501 318.524,138.000 328.872 C 181.004 349.572,234.880 346.732,274.400 321.681 C 283.924 315.644,286.723 313.558,295.400 306.026 C 301.197 300.995,312.464 288.388,315.896 283.092 C 316.499 282.161,317.106 281.310,317.246 281.200 C 319.516 279.406,332.800 254.335,332.800 251.843 C 332.800 251.578,332.963 251.189,333.163 250.980 C 333.362 250.771,333.716 249.970,333.948 249.200 C 334.180 248.430,335.011 245.910,335.795 243.600 C 338.033 237.004,340.692 225.295,341.427 218.800 C 341.564 217.590,341.750 216.150,341.841 215.600 C 342.860 209.453,342.860 189.747,341.841 183.600 C 341.750 183.050,341.564 181.610,341.427 180.400 C 340.235 169.860,335.768 153.493,331.437 143.800 C 330.848 142.480,329.972 140.500,329.492 139.400 C 321.894 121.993,307.377 103.121,291.000 89.360 C 284.803 84.153,276.518 78.508,268.800 74.233 C 251.868 64.855,225.025 56.800,210.702 56.800 C 210.536 56.800,210.400 63.730,210.400 72.200 M210.400 122.728 L 210.400 138.235 214.188 139.095 C 235.065 143.834,253.203 161.152,259.334 182.200 C 261.470 189.534,262.613 202.576,261.492 206.828 C 261.229 207.825,261.324 207.886,264.510 208.776 C 266.320 209.282,268.790 210.028,270.000 210.435 C 273.321 211.552,289.287 216.325,290.193 216.472 C 292.792 216.892,293.045 193.173,290.572 180.861 C 284.160 148.940,260.635 122.162,229.800 111.687 C 224.244 109.800,219.028 108.575,211.500 107.393 L 210.400 107.220 210.400 122.728 " stroke="none" fill="#44cc64" fill-rule="evenodd"></path><path id="path1" d="" stroke="none" fill="#48cc64" fill-rule="evenodd"></path><path id="path2" d="" stroke="none" fill="#48cc64" fill-rule="evenodd"></path><path id="path3" d="" stroke="none" fill="#48cc64" fill-rule="evenodd"></path><path id="path4" d="" stroke="none" fill="#48cc64" fill-rule="evenodd"></path></g></svg>