<?xml version="1.0" encoding="UTF-8"?>
<!DOCTYPE svg PUBLIC "-//W3C//DTD SVG 1.1//EN" "http://www.w3.org/Graphics/SVG/1.1/DTD/svg11.dtd">
<!-- Creator: CorelDRAW (OEM Version) -->
<svg xmlns="http://www.w3.org/2000/svg" xml:space="preserve" width="5.60344in" height="6.5in" version="1.1" style="shape-rendering:geometricPrecision; text-rendering:geometricPrecision; image-rendering:optimizeQuality; fill-rule:evenodd; clip-rule:evenodd"
viewBox="0 0 1561.58 1811.43"
 xmlns:xlink="http://www.w3.org/1999/xlink"
 xmlns:xodm="http://www.corel.com/coreldraw/odm/2003">
 <defs>
  <style type="text/css">
   <![CDATA[
    .fil0 {fill:#43CD66}
   ]]>
  </style>
 </defs>
 <g id="Layer_x0020_1">
  <metadata id="CorelCorpID_0Corel-Layer"/>
  <path class="fil0" d="M905.72 0c258.05,0 490.89,107.92 655.86,281.09l-151.35 144.15c-126.9,-133.2 -306.01,-216.22 -504.51,-216.22 -384.78,0 -696.71,311.93 -696.71,696.71 0,384.78 311.93,696.71 696.71,696.71 198.5,0 377.61,-83.02 504.51,-216.22l151.35 144.15c-164.97,173.17 -397.81,281.09 -655.86,281.09 -500.21,0 -905.72,-405.5 -905.72,-905.72 0,-500.21 405.5,-905.72 905.72,-905.72z"/>
  <path class="fil0" d="M905.72 311.45c169.31,0 322.09,70.81 430.33,184.43l-143.44 136.61c-72.16,-75.75 -174.01,-122.95 -286.89,-122.95 -218.8,0 -396.18,177.38 -396.18,396.18 0,218.8 177.38,396.18 396.18,396.18 112.88,0 214.73,-47.21 286.89,-122.95l143.44 136.61c-108.24,113.62 -261.02,184.43 -430.33,184.43 -328.21,0 -594.27,-266.06 -594.27,-594.27 0,-328.21 266.06,-594.27 594.27,-594.27z"/>
 </g>
</svg>
