<svg width="180" height="40" viewBox="0 0 180 40" fill="none" xmlns="http://www.w3.org/2000/svg">
  <path d="M20 0C8.954 0 0 8.954 0 20C0 31.046 8.954 40 20 40C31.046 40 40 31.046 40 20C40 8.954 31.046 0 20 0ZM20 6C27.732 6 34 12.268 34 20C34 27.732 27.732 34 20 34C12.268 34 6 27.732 6 20C6 12.268 12.268 6 20 6Z" fill="#0070F3"/>
  <path d="M20 10C14.477 10 10 14.477 10 20C10 25.523 14.477 30 20 30C25.523 30 30 25.523 30 20C30 14.477 25.523 10 20 10ZM20 24C17.791 24 16 22.209 16 20C16 17.791 17.791 16 20 16C22.209 16 24 17.791 24 20C24 22.209 22.209 24 20 24Z" fill="#0070F3"/>
  <path d="M52.064 28V12.4H55.904L61.904 21.52L67.904 12.4H71.744V28H68.224V18.16L62.944 26.24H60.864L55.584 18.16V28H52.064ZM83.4294 28.32C81.6694 28.32 80.1094 27.92 78.7494 27.12C77.3894 26.32 76.3094 25.2 75.5094 23.76C74.7094 22.32 74.3094 20.68 74.3094 18.84C74.3094 17 74.7094 15.36 75.5094 13.92C76.3094 12.48 77.3894 11.36 78.7494 10.56C80.1094 9.76 81.6694 9.36 83.4294 9.36C85.1894 9.36 86.7494 9.76 88.1094 10.56C89.4694 11.36 90.5494 12.48 91.3494 13.92C92.1494 15.36 92.5494 17 92.5494 18.84C92.5494 20.68 92.1494 22.32 91.3494 23.76C90.5494 25.2 89.4694 26.32 88.1094 27.12C86.7494 27.92 85.1894 28.32 83.4294 28.32ZM83.4294 25.04C84.4294 25.04 85.3094 24.8 86.0694 24.32C86.8294 23.84 87.4294 23.16 87.8694 22.28C88.3094 21.4 88.5294 20.28 88.5294 18.92C88.5294 17.56 88.3094 16.44 87.8694 15.56C87.4294 14.68 86.8294 14 86.0694 13.52C85.3094 13.04 84.4294 12.8 83.4294 12.8C82.4294 12.8 81.5494 13.04 80.7894 13.52C80.0294 14 79.4294 14.68 78.9894 15.56C78.5494 16.44 78.3294 17.56 78.3294 18.92C78.3294 20.28 78.5494 21.4 78.9894 22.28C79.4294 23.16 80.0294 23.84 80.7894 24.32C81.5494 24.8 82.4294 25.04 83.4294 25.04ZM95.3491 28V12.4H98.8691V28H95.3491ZM97.1091 9.6C96.3891 9.6 95.7891 9.36 95.3091 8.88C94.8291 8.4 94.5891 7.8 94.5891 7.08C94.5891 6.36 94.8291 5.76 95.3091 5.28C95.7891 4.8 96.3891 4.56 97.1091 4.56C97.8291 4.56 98.4291 4.8 98.9091 5.28C99.3891 5.76 99.6291 6.36 99.6291 7.08C99.6291 7.8 99.3891 8.4 98.9091 8.88C98.4291 9.36 97.8291 9.6 97.1091 9.6ZM102.469 28V12.4H105.989V15.2C106.549 14.16 107.309 13.36 108.269 12.8C109.229 12.24 110.309 11.96 111.509 11.96C113.349 11.96 114.789 12.52 115.829 13.64C116.869 14.76 117.389 16.36 117.389 18.44V28H113.869V19.04C113.869 17.76 113.589 16.8 113.029 16.16C112.469 15.52 111.669 15.2 110.629 15.2C109.429 15.2 108.469 15.6 107.749 16.4C107.029 17.2 106.669 18.32 106.669 19.76V28H102.469ZM129.745 28.32C127.985 28.32 126.425 27.92 125.065 27.12C123.705 26.32 122.625 25.2 121.825 23.76C121.025 22.32 120.625 20.68 120.625 18.84C120.625 17 121.025 15.36 121.825 13.92C122.625 12.48 123.705 11.36 125.065 10.56C126.425 9.76 127.985 9.36 129.745 9.36C131.505 9.36 133.065 9.76 134.425 10.56C135.785 11.36 136.865 12.48 137.665 13.92C138.465 15.36 138.865 17 138.865 18.84C138.865 20.68 138.465 22.32 137.665 23.76C136.865 25.2 135.785 26.32 134.425 27.12C133.065 27.92 131.505 28.32 129.745 28.32ZM129.745 25.04C130.745 25.04 131.625 24.8 132.385 24.32C133.145 23.84 133.745 23.16 134.185 22.28C134.625 21.4 134.845 20.28 134.845 18.92C134.845 17.56 134.625 16.44 134.185 15.56C133.745 14.68 133.145 14 132.385 13.52C131.625 13.04 130.745 12.8 129.745 12.8C128.745 12.8 127.865 13.04 127.105 13.52C126.345 14 125.745 14.68 125.305 15.56C124.865 16.44 124.645 17.56 124.645 18.92C124.645 20.28 124.865 21.4 125.305 22.28C125.745 23.16 126.345 23.84 127.105 24.32C127.865 24.8 128.745 25.04 129.745 25.04ZM141.665 28V12.4H145.185V15.2C145.745 14.16 146.505 13.36 147.465 12.8C148.425 12.24 149.505 11.96 150.705 11.96C152.545 11.96 153.985 12.52 155.025 13.64C156.065 14.76 156.585 16.36 156.585 18.44V28H153.065V19.04C153.065 17.76 152.785 16.8 152.225 16.16C151.665 15.52 150.865 15.2 149.825 15.2C148.625 15.2 147.665 15.6 146.945 16.4C146.225 17.2 145.865 18.32 145.865 19.76V28H141.665ZM168.941 28.32C167.181 28.32 165.621 27.92 164.261 27.12C162.901 26.32 161.821 25.2 161.021 23.76C160.221 22.32 159.821 20.68 159.821 18.84C159.821 17 160.221 15.36 161.021 13.92C161.821 12.48 162.901 11.36 164.261 10.56C165.621 9.76 167.181 9.36 168.941 9.36C170.701 9.36 172.261 9.76 173.621 10.56C174.981 11.36 176.061 12.48 176.861 13.92C177.661 15.36 178.061 17 178.061 18.84C178.061 20.68 177.661 22.32 176.861 23.76C176.061 25.2 174.981 26.32 173.621 27.12C172.261 27.92 170.701 28.32 168.941 28.32ZM168.941 25.04C169.941 25.04 170.821 24.8 171.581 24.32C172.341 23.84 172.941 23.16 173.381 22.28C173.821 21.4 174.041 20.28 174.041 18.92C174.041 17.56 173.821 16.44 173.381 15.56C172.941 14.68 172.341 14 171.581 13.52C170.821 13.04 169.941 12.8 168.941 12.8C167.941 12.8 167.061 13.04 166.301 13.52C165.541 14 164.941 14.68 164.501 15.56C164.061 16.44 163.841 17.56 163.841 18.92C163.841 20.28 164.061 21.4 164.501 22.28C164.941 23.16 165.541 23.84 166.301 24.32C167.061 24.8 167.941 25.04 168.941 25.04Z" fill="#111827"/>
</svg>
